PathFileType	4	(X/Y/Z)	Run_400 01
DataRate	CameraRate	NumFrames	NumMarkers	Units	OrigDataRate	OrigDataStartFrame	OrigNumFrames
120	120	6	42	mm	120	117	128
Frame#	Time	LASI			RASI			LPSI			RPSI			RTH1			RTH2			RTH3			LTH1			LTH2			LTH3			RTB1			RTB2			RTB3			LTB1			LTB2			LTB3			RCAL			RTOE			RMT5			LCAL			LTOE			LMT5			LACR			RACR			CLAV			C7			RUA1			RUA2			RUA3			RLEL			RMEL			LUA1			LUA2			LUA3			LLEL			LMEL			RFAsuperior			RFAradius			RFAulna			LFAsuperior			LFAradius			LFAulna			
		X1	Y1	Z1	X2	Y2	Z2	X3	Y3	Z3	X4	Y4	Z4	X5	Y5	Z5	X6	Y6	Z6	X7	Y7	Z7	X8	Y8	Z8	X9	Y9	Z9	X10	Y10	Z10	X11	Y11	Z11	X12	Y12	Z12	X13	Y13	Z13	X14	Y14	Z14	X15	Y15	Z15	X16	Y16	Z16	X17	Y17	Z17	X18	Y18	Z18	X19	Y19	Z19	X20	Y20	Z20	X21	Y21	Z21	X22	Y22	Z22	X23	Y23	Z23	X24	Y24	Z24	X25	Y25	Z25	X26	Y26	Z26	X27	Y27	Z27	X28	Y28	Z28	X29	Y29	Z29	X30	Y30	Z30	X31	Y31	Z31	X32	Y32	Z32	X33	Y33	Z33	X34	Y34	Z34	X35	Y35	Z35	X36	Y36	Z36	X37	Y37	Z37	X38	Y38	Z38	X39	Y39	Z39	X40	Y40	Z40	X41	Y41	Z41	X42	Y42	Z42	

117	1.05	734.077649	1039.477756	-475.571936	717.556555	1034.559973	-243.753252	570.278533	1070.305583	-419.632174	568.048571	1080.453035	-331.402189	621.03133	852.878617	-204.220466	631.541526	718.865001	-226.216754	510.305744	636.138526	-230.206246	736.025931	898.961815	-534.450413	835.975671	818.342615	-521.98356	823.606931	664.130332	-502.395343	384.077537	469.324434	-290.442867	303.271812	494.854092	-246.973386	204.34982	436.976167	-313.445107	939.627535	452.647378	-428.299056	901.898416	341.609092	-475.803885	927.054525	263.341145	-401.960895	67.271199	515.944304	-344.987053	53.772454	298.088091	-325.045138	16.724138	341.506509	-246.487237	830.86593	118.833377	-395.291174	1043.016724	168.340101	-396.843161	1020.729426	132.460866	-481.229261	678.505088	1502.860086	-551.496069	755.9868719999999	1491.910207	-194.688808	807.6113350000001	1453.598214	-372.617893	680.2790189999999	1541.421125	-366.959075	750.983063	1387.616255	-123.478123	775.103514	1321.790877	-123.26537	688.71215	1308.187571	-58.651512	729.054928	1227.176463	-41.075608	650.410566	1198.748295	-81.385057	623.142598	1481.831791	-602.857338	547.097439	1445.74595	-589.317759	568.85766	1428.551416	-663.062093	493.380353	1365.352342	-725.249323	446.269831	1323.078713	-661.005909	788.341146	1233.746322	-102.227307	849.776709	1258.126379	-254.930102	853.902213	1192.083247	-243.872065	557.400982	1337.261193	-726.675086	694.134429	1246.409187	-655.776081	666.484004	1201.415165	-693.730126	
118	1.058333	732.7471399999999	1036.685456	-476.843913	717.950706	1032.132925	-243.532218	568.297801	1064.323709	-417.808339	567.518355	1074.916434	-329.709769	626.689898	847.785485	-204.23341	639.6181350000001	714.69213	-226.681727	521.021017	628.615392	-228.699509	734.066866	894.0991749999999	-536.528558	831.114992	810.1331709999999	-523.647422	816.655725	657.1124160000001	-501.901141	389.675955	469.749904	-290.773976	311.430773	500.393769	-246.277067	207.954386	452.729765	-313.387159	933.466923	445.836618	-427.767551	896.891882	334.721069	-475.543264	923.4182970000001	256.588334	-401.79719	77.422358	542.146629	-343.179192	48.856377	325.950189	-323.897205	15.729157	371.663627	-244.129588	829.64823	109.827333	-395.474308	1040.999375	163.799931	-396.63011	1019.757999	127.489035	-481.774565	680.884403	1497.571455	-554.353779	754.728069	1489.24954	-196.096492	807.20086	1449.287756	-373.08911	680.150998	1538.085648	-369.734406	747.707772	1385.824384	-124.242847	770.795993	1319.446359	-123.227178	683.947308	1307.568278	-59.407108	722.014908	1225.088754	-41.312566	642.57179	1199.339518	-81.728908	625.907201	1475.635018	-606.531207	549.782187	1437.995805	-593.72172	572.616746	1421.445185	-666.8594880000001	499.230677	1357.552935	-730.430764	452.223962	1313.140676	-667.266698	782.025918	1228.244761	-101.840379	846.367615	1247.245149	-254.291936	846.905467	1181.331957	-243.208186	564.356007	1331.165618	-731.840436	702.828223	1245.055577	-659.418535	676.816002	1199.274909	-697.708981	
119	1.066667	731.264197	1033.173113	-478.238469	718.702533	1028.887077	-243.248619	566.285921	1057.696034	-415.894426	566.4621969999999	1068.332042	-327.779747	632.254821	842.211834	-204.447186	648.007687	709.822169	-227.117309	532.098999	620.678485	-227.041223	731.6948159999999	888.444308	-537.971191	825.919051	801.930143	-524.294158	810.91687	650.566913	-501.552646	396.536312	470.173336	-291.228762	320.94109	505.235766	-245.333448	214.232623	467.845916	-313.423087	925.932808	438.799635	-427.002151	890.5220420000001	327.849779	-475.584019	917.347513	249.530685	-401.774929	90.776088	566.473942	-341.35937	47.63541	352.878256	-322.195645	18.51933	400.517422	-241.71739	824.906284	101.809933	-396.045189	1036.099588	157.095841	-396.208379	1015.351991	120.103363	-481.639917	683.299263	1491.330484	-557.169255	753.031437	1485.756831	-197.424674	806.73753	1444.178179	-373.400975	679.945429	1534.009528	-372.536159	744.094317	1383.129425	-125.042759	765.998849	1315.996197	-123.413968	678.769626	1306.202664	-60.191435	714.331454	1222.414621	-41.44256	634.244658	1199.280338	-82.14285599999999	628.85067	1468.362287	-610.523289	552.734776	1429.375461	-598.643273	576.828528	1413.163552	-671.111171	505.675373	1348.560495	-736.1188	458.814922	1302.050336	-674.0548199999999	775.1295239999999	1221.912221	-100.972278	842.869646	1235.053285	-252.686261	839.588561	1169.417977	-241.153649	571.872463	1324.060905	-737.424266	711.923755	1242.992035	-662.996275	687.7658730000001	1196.460819	-701.621994	
120	1.075	729.774769	1028.980174	-479.787095	719.555419	1024.750019	-243.265396	564.372807	1050.556127	-413.964722	564.747216	1060.972134	-325.749345	637.663509	836.117485	-204.799718	656.622195	704.175851	-227.647827	543.345991	612.370978	-225.317504	728.853162	882.076989	-538.363905	820.838875	794.170164	-523.969815	805.636198	644.018642	-501.340109	404.749823	470.508082	-291.736777	331.732711	509.360737	-244.135961	222.986861	481.735274	-313.218179	917.107499	431.194458	-426.314296	882.785132	320.459642	-475.855378	909.177178	241.68762	-402.006493	106.905369	588.5085800000001	-339.661675	49.884389	378.27765	-320.068425	24.864523	427.483778	-239.300277	816.478666	95.659972	-396.812949	1028.234134	147.203332	-395.48065	1007.085377	109.597622	-480.587031	685.616722	1484.22603	-559.871407	751.011896	1481.470677	-198.676518	806.309851	1438.353112	-373.595027	679.752824	1529.197137	-375.263156	740.0834170000001	1379.554762	-125.886726	760.648893	1311.523616	-123.857774	673.10754	1304.142307	-61.064607	706.045669	1219.241453	-41.457576	625.561477	1198.603033	-82.706245	631.898761	1460.091891	-614.748285	555.930791	1419.861494	-604.015159	581.49559	1403.792659	-675.7986110000001	512.6922510000001	1338.456072	-742.225184	465.974862	1289.919581	-681.253466	767.6143980000001	1214.82014	-99.714956	839.13165	1221.645614	-250.202718	831.915293	1156.433893	-237.72662	579.888495	1316.121903	-743.218341	721.47845	1240.416296	-666.519607	699.30211	1193.063817	-705.427536	
121	1.083333	728.368101	1024.035288	-481.552165	720.333142	1019.779453	-243.646036	562.601121	1042.980104	-412.142559	562.64536	1053.007773	-323.792108	642.9212649999999	829.4738599999999	-205.144149	665.256511	697.837263	-228.043912	554.511961	603.762345	-223.581373	725.7165639999999	875.181897	-537.679163	816.2647449999999	787.124767	-522.663058	800.008881	637.025588	-501.164408	414.294974	470.320344	-291.757819	343.808158	512.67545	-242.635614	233.996104	493.918558	-312.498427	907.462314	422.625248	-425.90575	873.51061	312.040964	-475.919734	898.885824	232.719085	-402.279112	125.382014	608.02472	-338.17638	55.549235	401.698817	-317.781754	34.560137	452.12695	-236.969229	803.534592	92.268488	-397.44461	1016.590582	133.609839	-394.121766	994.189714	96.313338	-478.673865	687.7783030000001	1476.379828	-562.401853	748.7952330000001	1476.45393	-199.855239	805.985687	1431.882679	-373.663044	679.555867	1523.526129	-377.78194	735.639412	1375.16473	-126.803147	754.7056239999999	1306.183837	-124.526626	666.9017720000001	1301.48277	-62.080161	697.198498	1215.660581	-41.349978	616.612203	1197.407774	-83.468582	635.029886	1450.905982	-619.09663	559.275516	1409.422208	-609.7684829999999	586.614145	1393.446724	-680.815522	520.265669	1327.360497	-748.597507	473.655625	1276.831772	-688.694963	759.472311	1207.076049	-98.12984899999999	834.963544	1207.058095	-246.934384	823.792502	1142.469013	-233.128647	588.351625	1307.52009	-748.9763840000001	731.473509	1237.457418	-669.937916	711.410931	1189.202376	-709.080395	
122	1.091667	726.980322	1018.201437	-483.495528	721.002046	1014.038033	-244.22555	560.8607469999999	1035.004748	-410.597137	560.702761	1044.476823	-322.069229	648.041976	822.226106	-205.353251	673.699802	690.963254	-227.914213	565.491145	594.895225	-221.822995	722.510492	867.958044	-536.287236	812.312528	780.669457	-520.372876	793.903745	629.527237	-501.068871	425.071493	469.056053	-290.51658	357.237568	515.0621149999999	-240.78114	247.093353	504.175921	-311.194419	897.646514	412.947183	-425.676515	862.406265	302.56492	-475.188996	885.892281	222.842595	-401.975841	145.855161	624.927671	-336.888036	64.62200199999999	422.782145	-315.468216	47.395128	474.164042	-234.754139	785.048752	91.766019	-397.548596	999.961954	117.39966	-391.814659	975.922605	82.19649800000001	-476.253184	689.7783879999999	1467.95785	-564.703447	746.487635	1470.797843	-200.961046	805.798715	1424.8297	-373.595811	679.236928	1516.854029	-379.99571	730.778997	1370.072478	-127.775341	748.15846	1300.185002	-125.326946	660.117601	1298.360413	-63.268897	687.838625	1211.784132	-41.115087	607.466209	1195.838285	-84.4259	638.2937920000001	1440.874217	-623.432632	562.683385	1398.101148	-615.835556	592.168685	1382.262856	-685.986735	528.3917	1315.414806	-755.0280299999999	481.945474	1262.81432	-696.201672	750.748725	1198.839832	-96.21256700000001	830.187859	1191.298902	-242.906393	815.086909	1127.627267	-227.560025	597.245006	1298.364996	-754.506629	741.814993	1234.15557	-673.111266	724.091138	1185.000177	-712.519111	
